<?xml version="1.0" standalone="no"?>
<!DOCTYPE svg PUBLIC "-//W3C//DTD SVG 20010904//EN"
 "http://www.w3.org/TR/2001/REC-SVG-20010904/DTD/svg10.dtd">
<svg version="1.0" xmlns="http://www.w3.org/2000/svg"
 width="500.000000pt" height="500.000000pt" viewBox="0 0 500.000000 500.000000"
 preserveAspectRatio="xMidYMid meet">

<g transform="translate(0.000000,500.000000) scale(0.100000,-0.100000)"
fill="#000000" stroke="none">
<path d="M200 3625 l0 -35 2300 0 2300 0 0 35 0 35 -2300 0 -2300 0 0 -35z"/>
<path d="M2795 3485 c-26 -9 -99 -14 -212 -14 l-173 -1 0 -200 0 -200 -135 0
-135 0 0 200 0 200 -55 0 -55 0 0 -460 0 -460 55 0 55 0 0 210 0 210 135 0
135 0 0 -210 0 -210 60 0 60 0 0 205 0 205 123 0 c91 -1 127 -4 141 -15 27
-21 59 -19 90 6 20 16 26 29 26 59 0 65 -62 98 -120 65 -18 -10 -60 -14 -143
-15 l-118 0 3 158 3 157 119 -2 c90 -2 123 -6 136 -18 23 -21 72 -19 98 5 33
31 30 92 -4 119 -30 24 -34 24 -89 6z m69 -51 c22 -21 3 -56 -27 -52 -29 4
-37 54 -10 61 10 3 19 5 20 6 1 0 9 -6 17 -15z m-6 -403 c8 -4 12 -19 10 -32
-2 -18 -9 -24 -28 -24 -19 0 -26 6 -28 24 -3 20 11 41 28 41 3 0 11 -4 18 -9z"/>
<path d="M200 3420 l0 -50 104 0 104 0 -2 -410 -1 -410 58 0 57 0 0 410 0 410
100 0 100 0 0 50 0 50 -260 0 -260 0 0 -50z"/>
<path d="M860 3010 l0 -460 215 0 215 0 0 45 0 45 -160 0 -160 0 0 170 0 170
146 0 145 0 -3 43 -3 42 -142 3 -143 3 0 154 0 155 160 0 160 0 0 45 0 45
-215 0 -215 0 0 -460z"/>
<path d="M1606 3460 c-48 -15 -94 -53 -115 -96 -20 -39 -21 -58 -21 -353 0
-334 3 -354 51 -400 56 -53 151 -75 272 -64 l67 6 0 48 0 49 -97 0 c-123 0
-138 5 -163 45 -19 30 -20 49 -20 311 0 203 4 286 13 304 21 43 71 60 173 60
l92 0 4 46 c2 25 1 47 -1 50 -8 8 -225 2 -255 -6z"/>
<path d="M4640 3335 l0 -135 -110 0 c-130 0 -173 -16 -211 -77 -23 -37 -24
-45 -24 -249 l0 -211 29 -37 c41 -54 94 -76 188 -76 42 0 88 4 102 10 16 6 27
6 31 0 4 -6 28 -10 56 -10 l49 0 0 460 0 460 -55 0 -55 0 0 -135z m4 -412 c10
-261 4 -273 -124 -273 -64 0 -73 3 -95 26 -25 26 -25 30 -25 199 0 158 2 174
20 198 24 30 39 34 141 36 l76 1 7 -187z"/>
<path d="M2990 2964 c0 -144 4 -263 11 -289 14 -57 59 -101 122 -120 63 -19
91 -19 153 0 30 9 50 11 52 5 2 -6 26 -10 53 -10 l49 0 0 330 0 330 -55 0 -55
0 0 -232 c0 -128 -3 -249 -6 -269 -8 -45 -34 -59 -108 -59 -44 0 -57 4 -77 26
-24 25 -24 26 -27 280 l-3 254 -55 0 -54 0 0 -246z"/>
<path d="M3640 2875 l0 -325 60 0 60 0 0 258 c0 308 -6 292 113 292 111 0 107
11 107 -297 l0 -253 61 0 60 0 -3 268 c-3 260 -4 268 -27 305 -36 58 -83 77
-194 77 -54 0 -98 -5 -104 -11 -8 -8 -13 -8 -17 0 -4 6 -32 11 -62 11 l-54 0
0 -325z"/>
<path d="M200 2435 l0 -35 2300 0 2300 0 0 35 0 35 -2300 0 -2300 0 0 -35z"/>
<path d="M1545 1810 l0 -460 53 0 52 0 0 210 0 210 140 0 140 0 0 -210 0 -210
55 0 55 0 0 460 0 460 -55 0 -55 0 0 -200 0 -200 -140 0 -140 0 0 200 0 200
-53 0 -52 0 0 -460z"/>
<path d="M2250 1885 c0 -363 1 -388 20 -424 40 -80 111 -114 235 -114 81 0
163 24 192 56 59 64 60 81 56 600 l-3 267 -55 0 -55 0 0 -364 c0 -240 -4 -374
-11 -395 -6 -18 -24 -38 -40 -46 -33 -18 -138 -20 -172 -4 -50 23 -52 37 -55
437 l-3 372 -55 0 -54 0 0 -385z"/>
<path d="M2970 1811 l0 -458 38 -7 c20 -3 92 -6 159 -6 154 0 218 20 264 82
29 40 29 43 29 170 0 140 -9 174 -54 220 -18 18 -23 29 -15 33 6 4 22 31 35
59 31 66 33 182 5 255 -38 100 -67 111 -291 111 l-170 0 0 -459z m334 346 c35
-26 48 -164 21 -222 -22 -44 -51 -55 -150 -55 l-85 0 0 145 0 145 98 0 c64 0
104 -4 116 -13z m14 -401 c26 -25 27 -33 30 -139 3 -103 2 -115 -18 -140 -21
-26 -24 -27 -131 -27 l-109 0 0 164 0 165 53 4 c104 8 147 2 175 -27z"/>
</g>
</svg>
